/* XPM */
static char * Banquise_xpm[] = {
"64 64 402 2",
"  	c #0E75D1",
". 	c #0E75D2",
"+ 	c #0E76D3",
"@ 	c #0E74CF",
"# 	c #0E71CA",
"$ 	c #0D6FC7",
"% 	c #0D6EC5",
"& 	c #0D6FC8",
"* 	c #0E72CD",
"= 	c #0E76D2",
"- 	c #0E70C9",
"; 	c #0C64B6",
"> 	c #0B539B",
", 	c #09407E",
"' 	c #083167",
") 	c #08285A",
"! 	c #082455",
"~ 	c #082253",
"{ 	c #082353",
"] 	c #082556",
"^ 	c #082C61",
"/ 	c #09407D",
"( 	c #0B5BA7",
"_ 	c #0D70C9",
": 	c #0E72CC",
"< 	c #0C65B8",
"[ 	c #0A4F95",
"} 	c #09366E",
"| 	c #082658",
"1 	c #082354",
"2 	c #082759",
"3 	c #0A4686",
"4 	c #0D68BB",
"5 	c #0E73CD",
"6 	c #0D6DC3",
"7 	c #0C64B5",
"8 	c #0B5AA6",
"9 	c #0A5096",
"0 	c #0A4889",
"a 	c #094281",
"b 	c #094381",
"c 	c #0A4A8C",
"d 	c #0B559D",
"e 	c #0C61B0",
"f 	c #0D6CC2",
"g 	c #0E73CE",
"h 	c #0D6AC0",
"i 	c #0A4484",
"j 	c #082D62",
"k 	c #082456",
"l 	c #082557",
"m 	c #093F7B",
"n 	c #0C5EAD",
"o 	c #0D6DC4",
"p 	c #0C63B4",
"q 	c #0B569F",
"r 	c #0A4586",
"s 	c #09356D",
"t 	c #08295D",
"u 	c #082355",
"v 	c #08295C",
"w 	c #093871",
"x 	c #0A4D91",
"y 	c #0C60AF",
"z 	c #0D6BC1",
"A 	c #0C66B9",
"B 	c #0C5FAD",
"C 	c #09336A",
"D 	c #082F64",
"E 	c #0A498B",
"F 	c #0B56A0",
"G 	c #0C5DAB",
"H 	c #0C61B2",
"I 	c #0C5CAA",
"J 	c #0A4E92",
"K 	c #082A5E",
"L 	c #093369",
"M 	c #093269",
"N 	c #083066",
"O 	c #082C60",
"P 	c #1A3566",
"Q 	c #2F4E83",
"R 	c #2D4F8B",
"S 	c #27487E",
"T 	c #0E2E63",
"U 	c #0D2859",
"V 	c #6779A5",
"W 	c #8EA3D2",
"X 	c #899FD2",
"Y 	c #7F9AD2",
"Z 	c #8FADE7",
"` 	c #98B5F3",
" .	c #9BB7F3",
"..	c #A3BDF5",
"+.	c #9FB7EE",
"@.	c #A0B6E7",
"#.	c #96A7D4",
"$.	c #8393BA",
"%.	c #7482A8",
"&.	c #7381A6",
"*.	c #7482A6",
"=.	c #7481A7",
"-.	c #7684AB",
";.	c #99A8D1",
">.	c #9CACD4",
",.	c #AABBE4",
"'.	c #B9CAF6",
").	c #B8C8F6",
"!.	c #B7C9F6",
"~.	c #B4C7F3",
"{.	c #B5C8F3",
"].	c #B5C6F2",
"^.	c #B2C5F5",
"/.	c #AEC3F5",
"(.	c #AAC0F3",
"_.	c #9FB4E9",
":.	c #8EA4D2",
"<.	c #8BA2D2",
"[.	c #839ACC",
"}.	c #6679A4",
"|.	c #596D99",
"1.	c #1B3260",
"2.	c #7E91BE",
"3.	c #A3BCF5",
"4.	c #9FBBF5",
"5.	c #9EB9F5",
"6.	c #9FBCF8",
"7.	c #A7C4F9",
"8.	c #ACC7FB",
"9.	c #B6CEFB",
"0.	c #B9CFFA",
"a.	c #BBD0FA",
"b.	c #BCD0FB",
"c.	c #BFD0FD",
"d.	c #BED0FE",
"e.	c #BED0FC",
"f.	c #BED0FA",
"g.	c #BECFFF",
"h.	c #BDCEFB",
"i.	c #BDCEFA",
"j.	c #BDCEFC",
"k.	c #BECFFD",
"l.	c #BDCFFC",
"m.	c #BDCFFB",
"n.	c #BECFFC",
"o.	c #BACCFC",
"p.	c #B7CBFB",
"q.	c #B6CCFB",
"r.	c #B2CAFA",
"s.	c #98AEDB",
"t.	c #4B5C84",
"u.	c #2C3E69",
"v.	c #6C86BC",
"w.	c #779CE2",
"x.	c #7DA3E8",
"y.	c #95B3F0",
"z.	c #A3BBF1",
"A.	c #AEC4F6",
"B.	c #B2C9F9",
"C.	c #B7CCFD",
"D.	c #B9CDFC",
"E.	c #BACEFB",
"F.	c #BBCFF9",
"G.	c #BBCDFB",
"H.	c #BACCF9",
"I.	c #BBCEF8",
"J.	c #BCCEFA",
"K.	c #BBCCFD",
"L.	c #BDCEFE",
"M.	c #BBCDFA",
"N.	c #BBCDF9",
"O.	c #BDCEFD",
"P.	c #BBCDFD",
"Q.	c #BACDFD",
"R.	c #B7CDFC",
"S.	c #B6CBFB",
"T.	c #B5C9FA",
"U.	c #B2C7F8",
"V.	c #A7C0F1",
"W.	c #90A6D5",
"X.	c #51638E",
"Y.	c #0B285A",
"Z.	c #4B6DAB",
"`.	c #4069B1",
" +	c #6B90CB",
".+	c #A9C8F7",
"++	c #B1C8F8",
"@+	c #B3C6F8",
"#+	c #B5C8FA",
"$+	c #B8CAFD",
"%+	c #BACCFB",
"&+	c #BBCEF7",
"*+	c #BDCFF8",
"=+	c #BFD1FD",
"-+	c #BECFFB",
";+	c #C2D4FF",
">+	c #BED1FB",
",+	c #C1D3FC",
"'+	c #C0D1FE",
")+	c #BFD0FC",
"!+	c #BFD1FB",
"~+	c #BED0FB",
"{+	c #BED0F9",
"]+	c #BED0FD",
"^+	c #BCCEFB",
"/+	c #BCCDFD",
"(+	c #BDCDFD",
"_+	c #BCCCFE",
":+	c #B7CAFC",
"<+	c #B3C6F7",
"[+	c #AFC4F9",
"}+	c #AEC4F9",
"|+	c #ADC2F7",
"1+	c #3E4E79",
"2+	c #122D5A",
"3+	c #55729C",
"4+	c #94B7ED",
"5+	c #B4CAF9",
"6+	c #BBCEFB",
"7+	c #B8CCF9",
"8+	c #BBCEFA",
"9+	c #BDD0F9",
"0+	c #C0D2FD",
"a+	c #C1D4FD",
"b+	c #C3D6FC",
"c+	c #C1D3FD",
"d+	c #C0D2FE",
"e+	c #C0D2FC",
"f+	c #C1D4FB",
"g+	c #C4D7FD",
"h+	c #C3D5FB",
"i+	c #C2D5FD",
"j+	c #BFD1FA",
"k+	c #BFD0FB",
"l+	c #C0CFFB",
"m+	c #BED2FE",
"n+	c #B1C6F8",
"o+	c #ABC0F3",
"p+	c #9FB3E4",
"q+	c #34456F",
"r+	c #0E2B5C",
"s+	c #4E74B0",
"t+	c #94B5EC",
"u+	c #A5C3F1",
"v+	c #ABC5F1",
"w+	c #B7CBF6",
"x+	c #B5C7F3",
"y+	c #BED1FD",
"z+	c #BFD1FC",
"A+	c #C2D4FC",
"B+	c #C1D3FB",
"C+	c #C2D4FB",
"D+	c #C1D4F9",
"E+	c #C1D3FE",
"F+	c #C0D1FB",
"G+	c #C0D1FA",
"H+	c #C3D4FC",
"I+	c #BED1FC",
"J+	c #BFD2FD",
"K+	c #BDD2FC",
"L+	c #BCD2FB",
"M+	c #BACFF8",
"N+	c #A5B8DF",
"O+	c #405076",
"P+	c #6B87C0",
"Q+	c #729CDD",
"R+	c #88B0E6",
"S+	c #9FBEF4",
"T+	c #A9C1F3",
"U+	c #C5D4FB",
"V+	c #C0D3FC",
"W+	c #C2D4FD",
"X+	c #C1D4FC",
"Y+	c #C0D2FB",
"Z+	c #C0D3FB",
"`+	c #C3D4FB",
" @	c #C2D3FA",
".@	c #C2D3FC",
"+@	c #BED1F9",
"@@	c #BBCFFC",
"#@	c #BACEF9",
"$@	c #B8CCF8",
"%@	c #B5C9F3",
"&@	c #7888AC",
"*@	c #122C5D",
"=@	c #315589",
"-@	c #4E76A7",
";@	c #759AD3",
">@	c #769FDE",
",@	c #8CACE2",
"'@	c #ADC2F1",
")@	c #BED1FA",
"!@	c #BDD0FB",
"~@	c #BACBFA",
"{@	c #C1D3FA",
"]@	c #C1D4FA",
"^@	c #C3D5FC",
"/@	c #C6D7FA",
"(@	c #C5D6F9",
"_@	c #C4D5FA",
":@	c #C5D5FC",
"<@	c #C5D7FC",
"[@	c #C1D4F8",
"}@	c #BED1F5",
"|@	c #BBCEFD",
"1@	c #B6C9F9",
"2@	c #B5C8F6",
"3@	c #96A9D0",
"4@	c #33436C",
"5@	c #142647",
"6@	c #305481",
"7@	c #6F98D2",
"8@	c #8AA9E7",
"9@	c #8EAAE6",
"0@	c #AFC6F6",
"a@	c #BDD0FA",
"b@	c #BFD3FD",
"c@	c #BACEFA",
"d@	c #BBCDF8",
"e@	c #C4D6FC",
"f@	c #CBDBFF",
"g@	c #C8D8FC",
"h@	c #CBDCFC",
"i@	c #CDDFFE",
"j@	c #CADCFD",
"k@	c #C8D9FA",
"l@	c #CADCFB",
"m@	c #D0E2FE",
"n@	c #CBDCFB",
"o@	c #C7D9F7",
"p@	c #CBDDFA",
"q@	c #CEE0FB",
"r@	c #CCDEFA",
"s@	c #CBDEFA",
"t@	c #C6DBF7",
"u@	c #BED2F1",
"v@	c #A3B4D7",
"w@	c #7381A9",
"x@	c #546189",
"y@	c #172E5C",
"z@	c #07214E",
"A@	c #1E3663",
"B@	c #385383",
"C@	c #47689D",
"D@	c #597DB3",
"E@	c #82A0D9",
"F@	c #97B6EF",
"G@	c #94B4F1",
"H@	c #82A2E4",
"I@	c #7D9CDE",
"J@	c #7B9CD4",
"K@	c #96B4EA",
"L@	c #AAC5F4",
"M@	c #B3CBF7",
"N@	c #BAD0F8",
"O@	c #BFD1F4",
"P@	c #BFD0F2",
"Q@	c #C3D5F6",
"R@	c #C0D2F2",
"S@	c #C7D9F8",
"T@	c #CADCFA",
"U@	c #C5D7F4",
"V@	c #C4D7F5",
"W@	c #CADCF9",
"X@	c #CEDFFB",
"Y@	c #CDDFFB",
"Z@	c #C4D7F4",
"`@	c #8999B6",
" #	c #243761",
".#	c #072455",
"+#	c #082656",
"@#	c #1B3464",
"##	c #2F4876",
"$#	c #405F92",
"%#	c #33538A",
"&#	c #3F639E",
"*#	c #517AB6",
"=#	c #4D76B4",
"-#	c #5578B3",
";#	c #7B99CB",
">#	c #89A4CF",
",#	c #98ACD5",
"'#	c #A1B6D9",
")#	c #ADBFDC",
"!#	c #B6CFF3",
"~#	c #ACC5F2",
"{#	c #AAC1EF",
"]#	c #B5CFF6",
"^#	c #BAD0F6",
"/#	c #C6D6F7",
"(#	c #C4D3F6",
"_#	c #ABBDE4",
":#	c #889ABA",
"<#	c #556487",
"[#	c #0A285A",
"}#	c #092759",
"|#	c #19305F",
"1#	c #1D3360",
"2#	c #1F3360",
"3#	c #223460",
"4#	c #203460",
"5#	c #122A5B",
"                                                                                                                                ",
"                                                                                                                                ",
"                                                                                                                                ",
"                                                                                                                                ",
"                                                                                                                                ",
"                                                                                                                                ",
"                                                                                                                                ",
"                                                                                                                                ",
"                                                                                                                                ",
"                                                                                                                                ",
"                                                                                                                                ",
"                                                                                                                                ",
"                                                                                                                                ",
"                                                                                                                                ",
"                                                                                                                                ",
"                                                                                                                                ",
"                                                                                                                                ",
"                                                                                                                                ",
"                                                                                                                                ",
"                                                                                                                                ",
"                                                                                                                                ",
"                                                                                                                                ",
"                                                                                                                                ",
"                                                                                                                                ",
"                                                                                                                                ",
"                                                                                                                                ",
"                                                                                                                                ",
"                                                                                                                                ",
"                                                                                                                                ",
"                                                                                                                                ",
"                                                                                                                                ",
"                                                                                                                                ",
"                                                                                                                                ",
"                                                                                                                                ",
"                                                                                                                                ",
"                                                                                                                                ",
"                                                                                                                                ",
"                                                                                                                                ",
"                                                                                                                                ",
"                                                                                                                                ",
"                                                                                                                                ",
"                              . + . @ # $ % & *   +                                                                             ",
"                      = . - ; > , ' ) ! ~ ~ { ] ^ / ( _ +                                           . = + = .   . = + =         ",
"              = = : < [ } | ~ ] | | | | | | | | | | 1 2 3 4   =                           = + . 5 6 7 8 9 0 a , b c d e f g = = ",
"  . = +   * h ( i j ~ k | | | | | | | | | | | | | | | | l ! m n &   = = = = = + + =   : o p q r s t u ~ 1 ! ] l ] ! ~ 1 v w x y ",
"z A B > i C | ~ ] | | | | | | | | | | | | | | | | | | | | | l ~ D E F G e H y I F J a } K ! ~ k | | | | | | | | | | | | | | 1 1 ",
"L | | | | | | | | | | | | | | | | | | | | | | | | | | | | | | L M N O 2 1 1 l | | | | | | | | | | | | | | | | | | | | | | | | L ",
"| | | | | | | | | | | | | | | | | | | | | | | | | | | | | | | | | | | | | | | | | | | | | | | | | | | | | | | | | | | | | | | | ",
"| | | | | | | | | | | | | | | | P Q R S T | | | | | | | | | | | | | | | | | | | | | | | | | | | | | | | | | | | | | | | | | | | ",
"| | | | | | | | | | | U V W X Y Z `  ...+.@.#.$.%.&.*.=.-.;.>.,.'.).!.~.{.].^./.(._.:.<.[.}.|.1.| | | | | | | | | | | | | | | | ",
"| | | | | | | | | | | 2.3.4.5.6.7.8.9.0.a.b.c.c.d.e.f.e.g.g.h.i.j.k.l.m.e.e.e.e.n.j.j.o.p.q.r.s.t.u.| | | | | | | | | | | | | | ",
"| | | | | | | | | | | v.w.x.y.z.A.B.C.D.E.F.n.h.G.H.I.J.K.L.M.N.M.G.G.N.N.N.N.i.n.j.O.P.Q.R.S.T.U.V.W.X.| | | | | | | | | | | | ",
"| | | | | | | | | | | Y.Z.`. +.+++@+#+$+%+&+*+i.=+-+i.i.h.;+>+,+'+)+!+~+=+!+,+,+{+f.]+^+/+(+_+:+<+[+}+|+1+| | | | | | | | | | | ",
"| | | | | | | | | | | | | 2+3+4+5+6+7+8+J.9+{+e.e.e.e.e.=+=+!+!+0+a+b+c+d+e+,+f+g+h+i+j+k+l+)+m+7+n+o+p+q+| | | | | | | | | | | ",
"| | | | | | | | | | | | | | r+s+t+u+v+w+x+>+y+z+z+z+z+z+0+c+A+B+C+D+D+E+d+c+a+e+c+e+F+G+H+,+e+I+J+K+L+M+N+O+| | | | | | | | | | ",
"| | | | | | | | | | | | | | | | P+Q+R+S+T+a+U+e+V+W+W+V+e+c+!+E+X+Y+z+=+d+!+e+Z+,+X+`+ @.@c+,++@!+@@#@$@%@&@| | | | | | | | | | ",
"| | | | | | | | | | | | | | | | *@=@-@;@>@,@'@!+F+j+)@e+>+!@^+%+~@^+m.-+~+G+{@]@^@C+/@(@_@:@<@[@}@|@1@2@3@4@| | | | | | | | | | ",
"| | | | | | | | | | | | | | | | | | { 5@6@7@8@9@0@a@Z+b@b.c@8+d@e@f@g@h@i@j@k@l@m@n@o@p@q@r@s@t@u@v@w@x@y@| | | | | | | | | | | ",
"| | | | | | | | | | | | | | | | | | | l z@A@B@C@D@E@F@G@H@I@J@K@L@M@N@O@P@Q@R@S@T@U@V@W@X@X@Y@Z@`@ #| | | | | | | | | | | | | | ",
"| | | | | | | | | | | | | | | | | | | | | | | .#+#@###$#%#&#*#=#-#;#>#,#'#)#!#~#{#]#^#/#(#_#:#<#| | | | | | | | | | | | | | | | ",
"| | | | | | | | | | | | | | | | | | | | | | | | | | | | | | [#}#| | | | | U 1.|#|#1#2#3#4#5#| | | | | | | | | | | | | | | | | | ",
"| | | | | | | | | | | | | | | | | | | | | | | | | | | | | | | | | | | | | | | | | | | | | | | | | | | | | | | | | | | | | | | | ",
"| | | | | | | | | | | | | | | | | | | | | | | | | | | | | | | | | | | | | | | | | | | | | | | | | | | | | | | | | | | | | | | | ",
"| | | | | | | | | | | | | | | | | | | | | | | | | | | | | | | | | | | | | | | | | | | | | | | | | | | | | | | | | | | | | | | | "};
